<svg aria-hidden="true" style="position:absolute;width:0;height:0" xmlns="http://www.w3.org/2000/svg" overflow="hidden"><defs><symbol id="icon-barcode-icon" viewBox="0 0 44 32"><path d="M4.91 1.27H0v29.46h4.91V1.27zM17.26 1.27h-4.91v29.46h4.91V1.27zM24.699 1.27h-4.91v29.46h4.91V1.27zM44.19 1.27h-7.291v29.46h7.291V1.27zM9.82 1.27H7.439v29.46H9.82V1.27zM29.46 1.27h-2.381v29.46h2.381V1.27zM34.37 1.27h-2.381v29.46h2.381V1.27z"/></symbol><symbol id="icon-cross-icon" viewBox="0 0 32 32"><path fill="var(--color1, #4c00fe)" d="M1.646 32a1.646 1.646 0 01-1.163-2.811L29.19.482a1.646 1.646 0 112.328 2.329L2.811 31.517A1.65 1.65 0 011.646 32z"/><path fill="var(--color1, #4c00fe)" d="M30.355 32a1.63 1.63 0 01-1.163-.483L.483 2.811A1.647 1.647 0 012.812.482l28.707 28.707A1.646 1.646 0 0130.356 32z"/></symbol><symbol id="icon-location" viewBox="0 0 21 32"><path fill="var(--color2, #ffffff)" d="M10.667 0c-5.882 0-10.667 4.99-10.667 11.123 0 7.709 10.677 20.877 10.677 20.877s10.656-13.547 10.656-20.877c0-6.133-4.785-11.123-10.667-11.123zM13.885 14.38c-0.887 0.925-2.053 1.388-3.218 1.388s-2.331-0.463-3.218-1.388c-1.775-1.85-1.775-4.861 0-6.712 0.859-0.896 2.002-1.39 3.218-1.39s2.359 0.494 3.218 1.39c1.775 1.851 1.775 4.861 0 6.712z"></path></symbol></defs></svg>